PathFileType	4	(X/Y/Z)	/Users/mathieubourgeois/Desktop/Analyse/Traitement/Sujet_04/Data/Transformed_Sujet_04_velo_100.trc
DataRate	CameraRate	NumFrames	NumMarkers	Units	OrigDataRate	OrigDataStartFrame	OrigNumFrames
120.000000	120.000000	4	36	mm	120.000000	487	1948
Frame#	Time	RFHD			RANE			STRN			LANI			LKNE			T10			RHUM			RWRB			C7			LFWT			LTOE			RTOE			LWRA			LBWT			RBWT			RFWT			LKNI			RKNI			RKNE			LANE			RANI			LHEE			RHEE			LHUM			LRAD			RRAD			RWRA			LWRB			LFHD			LBHD			RBHD			RSHO			LSHO			CLAV			LCAR			RCAR			
		X1	Y1	Z1	X2	Y2	Z2	X3	Y3	Z3	X4	Y4	Z4	X5	Y5	Z5	X6	Y6	Z6	X7	Y7	Z7	X8	Y8	Z8	X9	Y9	Z9	X10	Y10	Z10	X11	Y11	Z11	X12	Y12	Z12	X13	Y13	Z13	X14	Y14	Z14	X15	Y15	Z15	X16	Y16	Z16	X17	Y17	Z17	X18	Y18	Z18	X19	Y19	Z19	X20	Y20	Z20	X21	Y21	Z21	X22	Y22	Z22	X23	Y23	Z23	X24	Y24	Z24	X25	Y25	Z25	X26	Y26	Z26	X27	Y27	Z27	X28	Y28	Z28	X29	Y29	Z29	X30	Y30	Z30	X31	Y31	Z31	X32	Y32	Z32	X33	Y33	Z33	X34	Y34	Z34	X35	Y35	Z35	X36	Y36	Z36	

488	4.058333333333334	280.1550903320312	1574.946655273438	49.43775177001947	-281.1193237304688	610.826416015625	137.5409545898437	-44.74872207641602	1214.294067382812	-28.09626007080086	-120.271987915039	291.6549987792969	-143.5481262207032	-69.77949523925778	728.910888671875	-239.4230346679688	-187.4680786132812	1438.168823242188	-34.62197494506847	84.1428527832031	1068.785400390625	185.0500793457031	314.6459045410156	910.1571044921875	226.6417388916015	63.50021362304688	1514.994995117188	-12.58215808868417	-222.9171600341797	1152.050170898438	-164.4190673828126	29.69349479675295	157.5240173339844	-159.1074676513672	-101.5183029174805	466.4355773925781	71.94618988037105	324.4794311523438	941.8511962890625	-213.3546752929688	-392.1588439941406	1257.587524414062	-106.1815109252931	-406.804443359375	1257.169311523438	25.88154602050768	-250.6283111572266	1187.850341796875	120.3794174194335	-54.3508834838867	681.6754150390625	-124.197868347168	55.07680130004882	881.192138671875	64.16532897949213	52.62437438964842	916.6868286132812	190.4681549072265	-162.0957336425781	279.5694580078125	-233.8075714111329	-255.5188446044922	608.1470947265625	43.55741119384759	-214.8513488769531	268.6318969726562	-181.6726531982422	-334.1967468261719	618.7192993164062	91.15638732910148	86.25325012207034	1084.203735351562	-245.2572937011719	126.5556030273438	1105.837524414062	-304.0606689453126	125.0547866821289	1088.344482421875	239.61181640625	324.4908752441406	918.6864624023438	151.6086883544922	284.5250854492188	889.1349487304688	-261.7490539550781	276.9857482910156	1570.062744140625	-82.43874359130866	115.5491561889649	1593.020263671875	-67.26715850830087	125.0835571289062	1589.34716796875	72.30031585693351	82.56522369384764	1419.0625	149.5189514160155	101.6865158081055	1425.948852539062	-190.0438232421876	75.8670654296875	1339.323120117188	-26.64138031005866	398.3120422363282	916.8477172851562	-296.1814270019531	403.4406738281249	933.232666015625	235.1532897949219	
489	4.066666666666666	280.6018981933594	1574.83154296875	50.55349731445306	-269.6532287597656	613.738525390625	138.0059814453124	-44.1226692199707	1214.456420898438	-27.11054039001473	-140.0724639892578	285.1802062988281	-141.3334960937501	-78.15185546874997	723.235107421875	-239.5872192382813	-187.0128479003906	1438.34326171875	-34.36442947387706	84.23652648925778	1068.865356445312	185.8895111083984	314.7697143554688	910.2100219726562	226.8158111572265	63.88618469238281	1515.124633789062	-11.74769496917733	-222.5030670166015	1152.064819335938	-164.5353546142579	13.81589984893801	150.7844085693359	-159.6421966552734	-86.71614837646486	475.23046875	72.60700988769527	324.6502990722656	941.8577880859375	-213.3463745117188	-391.7633972167969	1257.893920898438	-106.2889938354493	-406.7305603027344	1258.099487304688	26.96498107910143	-250.4694213867188	1189.1533203125	120.2088241577147	-63.04864120483397	675.7186279296875	-124.586784362793	60.16906356811523	895.901611328125	64.33329772949214	57.30065917968748	927.4744262695312	190.3073120117187	-176.6473541259765	275.2135925292969	-233.8636016845704	-244.2010040283203	611.7732543945312	43.9292259216308	-229.529052734375	264.9496459960938	-181.7243957519532	-323.3154602050781	620.0698852539062	91.90792083740226	86.55592346191409	1084.469848632812	-245.0658721923829	126.9234085083008	1106.175415039062	-303.7970275878907	125.2448043823242	1088.327514648438	240.2881317138672	324.0692749023438	918.310546875	150.4836730957031	284.6334533691407	889.2138061523438	-261.722412109375	277.6056518554688	1569.96044921875	-81.2944412231446	115.7612457275391	1593.411376953125	-65.39120483398446	125.5489883422851	1589.430053710938	73.19432067871085	82.80811309814452	1419.15185546875	150.4381561279296	102.1341247558594	1426.113403320312	-189.0846710205079	76.22164154052734	1339.450805664062	-25.73592376708991	398.4718017578126	916.7915649414062	-296.16064453125	403.5601501464843	933.193115234375	235.2144927978516	
490	4.075	280.9804382324219	1574.727416992188	51.65715789794915	-257.5567932128906	614.9532470703125	138.5865631103515	-43.60845184326172	1214.651245117188	-26.17442512512215	-148.5047149658203	283.5832214355469	-143.7875671386719	-85.6108474731445	718.4871215820312	-239.6881713867188	-186.6155395507812	1438.5302734375	-34.14757156372081	84.28340911865232	1068.883911132812	186.3596038818359	314.8138732910156	910.2379150390625	227.0316925048828	64.27199554443359	1515.198364257812	-10.88749313354501	-222.1275024414062	1152.149169921875	-164.5601501464845	-2.912429094314556	146.4764709472656	-160.5167388916016	-70.7672805786133	482.1078796386719	72.60546874999996	324.8229064941406	941.8533325195312	-213.2686767578125	-391.4588623046875	1258.288330078125	-106.3775863647462	-406.5634460449219	1258.730346679688	26.9042110443114	-250.3627319335938	1190.540161132812	120.0013122558593	-70.92553710937499	670.8440551757812	-124.8489837646485	65.00456237792967	904.1566162109375	64.81583404541011	63.62640762329099	936.556396484375	187.4660491943359	-191.6797943115234	272.3409423828125	-233.6167144775391	-230.4760894775391	613.3649291992188	45.16586303710931	-244.0835876464843	263.1207580566406	-180.8699951171876	-311.5706176757812	619.5632934570312	92.70577239990226	86.80084228515628	1084.676391601562	-244.8741149902344	127.2285995483399	1106.439453125	-303.4927062988282	125.3182296752929	1088.281005859375	240.8884887695312	323.939208984375	918.3369750976562	150.7740173339843	284.7072753906251	889.2548217773438	-261.658447265625	278.2307739257812	1569.920532226562	-80.25252532958991	116.8136749267578	1593.255004882812	-65.53625488281259	125.9386444091797	1589.490600585938	74.01772308349601	83.03617858886717	1419.236206054688	151.340103149414	102.5270309448242	1426.252075195312	-188.151580810547	76.57661437988281	1339.6005859375	-24.85774230957038	398.5945129394532	916.7501831054688	-296.0519409179688	403.6037292480468	933.1491088867188	235.3250274658203	
491	4.083333333333333	281.37353515625	1574.63525390625	52.63770294189447	-244.9219665527344	614.5419921875	139.3447723388671	-43.42572402954102	1214.741088867188	-25.43117141723641	-163.0395965576172	281.3753356933594	-143.5332946777344	-92.02903747558591	714.7706909179688	-239.6899719238282	-186.1981506347656	1438.746826171875	-33.91723632812511	84.25212860107419	1068.922241210938	186.8636627197265	314.7878723144531	910.271240234375	227.2914428710937	64.64625549316406	1515.314819335938	-10.17705917358407	-221.9462280273437	1152.257202148438	-164.5250244140626	-18.95243835449217	141.7710113525391	-160.6835021972656	-54.42448425292969	487.601806640625	72.99816131591794	324.9499816894531	941.855712890625	-213.1309967041016	-391.2664489746094	1258.735961914062	-106.3945693969728	-406.4026489257812	1259.567749023438	26.90365409851061	-250.2952270507813	1192.07958984375	119.8321304321288	-77.78055572509764	667.0459594726562	-125.0135498046876	69.90103912353514	912.1600341796875	64.04327392578121	67.94758605957028	945.0858154296875	185.1485595703124	-206.8335418701172	271.0275573730469	-233.1288604736329	-218.1081848144531	613.5613403320312	45.83915328979486	-258.9652404785156	262.5521545410156	-179.823715209961	-299.2509460449219	617.3470458984375	93.59719848632804	86.96414947509768	1084.870971679688	-244.7018737792969	127.456283569336	1106.62451171875	-303.2136535644532	125.2526931762695	1088.202514648438	241.4450531005859	323.7409973144531	918.4066772460938	151.0707092285156	284.7809143066407	889.2803955078125	-261.5698852539062	278.7597351074219	1569.9091796875	-79.22126770019538	117.3335952758789	1593.393920898438	-64.70656585693368	126.3078536987305	1589.58447265625	74.87660217285148	83.25181579589842	1419.339965820312	152.1700134277343	102.8928375244141	1426.283081054688	-187.2217254638673	76.92300415039062	1339.728393554688	-24.02244377136238	398.6954345703126	916.7503662109375	-295.9222717285156	403.6002502441406	933.1217041015625	235.4766845703125	
